<?xml version="1.0" encoding="utf-8"?>
<!-- Generator: Adobe Illustrator 27.1.0, SVG Export Plug-In . SVG Version: 6.00 Build 0)  -->
<svg version="1.1" id="Capa_1" xmlns="http://www.w3.org/2000/svg" xmlns:xlink="http://www.w3.org/1999/xlink" x="0px" y="0px"
	 viewBox="0 0 30 30" style="enable-background:new 0 0 30 30;" xml:space="preserve">
<style type="text/css">
	.st0{fill:#115E59;}
	.st1{fill:#FFFFFF;}
</style>
<g>
	<circle class="st0" cx="15" cy="15" r="15"/>
	<g>
		<path class="st1" d="M2.5,19.2L6,10.8h2l3.4,8.4H9.5L8.7,17H5.2l-0.9,2.2H2.5z M5.7,15.6h2.4l-1.2-3.1L5.7,15.6z"/>
		<path class="st1" d="M12.1,19.2v-8.4h4.2c0.6,0,1,0.1,1.5,0.3s0.8,0.5,1,0.9s0.4,0.9,0.4,1.4c0,0.5-0.1,0.9-0.4,1.3
			c-0.2,0.4-0.6,0.7-1,0.9S16.9,16,16.3,16h-2.5v3.2H12.1z M13.8,14.6h2.3c0.4,0,0.7-0.1,0.9-0.3c0.2-0.2,0.3-0.5,0.3-0.8
			c0-0.4-0.1-0.6-0.3-0.8c-0.2-0.2-0.5-0.3-0.9-0.3h-2.3V14.6z"/>
		<path class="st1" d="M20.3,19.2v-8.4h4.1c0.6,0,1.1,0.1,1.5,0.3c0.4,0.2,0.8,0.5,1,0.9s0.4,0.8,0.4,1.4c0,0.5-0.1,1-0.4,1.4
			c-0.3,0.4-0.7,0.7-1.2,0.9l1.9,3.5h-1.9L23.9,16H22v3.2H20.3z M22,14.6h2.2c0.4,0,0.7-0.1,0.9-0.3c0.2-0.2,0.4-0.5,0.4-0.8
			c0-0.3-0.1-0.6-0.4-0.8c-0.2-0.2-0.6-0.3-0.9-0.3H22V14.6z"/>
	</g>
</g>
</svg>
