<?xml version="1.0" encoding="utf-8"?>
<!-- Generator: Adobe Illustrator 27.1.0, SVG Export Plug-In . SVG Version: 6.00 Build 0)  -->
<svg version="1.1" id="Capa_1" xmlns="http://www.w3.org/2000/svg" xmlns:xlink="http://www.w3.org/1999/xlink" x="0px" y="0px"
	 viewBox="0 0 42.4 22.1" style="enable-background:new 0 0 42.4 22.1;" xml:space="preserve">
<style type="text/css">
	.st0{fill:#FFFFFF;}
	.st1{fill:#D64343;}
</style>
<g>
	<path class="st0" d="M27.4,13.8L27.4,13.8L27.4,13.8H15.1l0,0l0,0V1.5l0,0l0,0h12.3l0,0l0,0C27.4,1.5,27.4,13.8,27.4,13.8z
		 M24.2,6.7c0.3-1.2-0.2-2.5-1.5-2.8c-0.2,0-0.5-0.1-1-0.1c-1,0-1.9,0-2.9,0c0,0-0.1,0-0.1,0.1V11c0,0,0,0.1,0.1,0.1h1.4
		c0,0,0.1,0,0.1-0.1l0,0V8.4c0,0,0-0.1,0.1-0.1l0,0c0.6,0,1.3,0,2,0C23.2,8.2,24,7.6,24.2,6.7z"/>
	<path class="st0" d="M13.4,13.8L13.4,13.8L13.4,13.8H1.1l0,0l0,0V1.5l0,0h12.3l0,0l0,0C13.4,1.5,13.4,13.8,13.4,13.8z M8.8,9.4
		L8.8,9.4L9.4,11l0,0h1.5l0,0l0,0L8,3.9l0,0H6.6l0,0L3.8,11l0,0l0,0h1.5l0,0l0.6-1.5l0,0h2.9V9.4z"/>
	<path class="st0" d="M41.4,13.8C41.4,13.8,41.3,13.8,41.4,13.8L41.4,13.8H29.1l0,0l0,0V1.5l0,0h12.3l0,0V13.8z M33.9,8.1
		c0.3,0,0.6,0,0.8,0c0.3,0,0.5,0.2,0.7,0.5c0.6,0.8,1.1,1.6,1.7,2.5l0,0h1.6c0.1,0,0.1,0,0-0.1c-0.2-0.3-0.6-1-1.2-1.9
		c-0.3-0.5-0.6-0.9-1-1.2c-0.1,0,0-0.1,0-0.1c0.1,0,0.2-0.1,0.3-0.1c1.1-0.3,1.5-1.3,1.3-2.4c-0.3-1.4-1.4-1.5-2.6-1.5
		c-1.3,0-2.3,0-3.2,0c0,0-0.1,0-0.1,0.1V11c0,0,0,0.1,0.1,0.1l0,0h1.5c0,0,0.1,0,0.1-0.1V8.1L33.9,8.1z"/>
	<path class="st0" d="M6.4,8.2L6.4,8.2L6.4,8.2h1.9l0,0l0,0l-1-2.5l0,0l0,0L6.4,8.2z"/>
	<path class="st0" d="M21.6,5.1c1.4,0,1.5,1.9,0.2,2c-0.4,0-0.9,0.1-1.5,0c0,0-0.1,0-0.1-0.1V5.2c0,0,0-0.1,0.1-0.1l0,0
		C20.8,5.1,21.1,5.1,21.6,5.1z"/>
	<path class="st0" d="M35.9,5.1c0.5,0,0.9,0.4,0.9,0.9c-0.1,0.6-0.4,0.8-1,0.8s-1.2,0-1.9,0c0,0-0.1,0-0.1-0.1l0,0V5.3
		c0,0,0-0.1,0.1-0.1C34.5,5.2,35.2,5.1,35.9,5.1z"/>
	<path class="st0" d="M6.4,8.2l0.9-2.5l0,0l0,0l1,2.5l0,0l0,0H6.4L6.4,8.2L6.4,8.2z"/>
	<path class="st0" d="M15.6,17.8c0,1.5-1.2,2.6-2.6,2.6l0,0c-1.5,0.1-2.7-1.1-2.7-2.6s1.2-2.6,2.6-2.6l0,0
		C14.4,15.2,15.6,16.4,15.6,17.8L15.6,17.8z M15,17.8c0-1.1-0.9-2.1-2.1-2.1l0,0c-1.1,0-2.1,0.9-2.1,2.1l0,0c0,1.1,0.9,2.1,2.1,2.1
		S15,19,15,17.8z"/>
	<path class="st0" d="M21.1,18.3h-1.9c0,0-0.1,0-0.1-0.1v-0.4c0,0,0-0.1,0.1-0.1h2.6c0,0,0.1,0,0.1,0.1l0,0c0,0.7-0.2,1.4-0.7,1.9
		c-1.4,1.5-3.8,0.9-4.5-0.9c-0.7-2.1,1.2-4,3.3-3.4c0.6,0.2,1.1,0.6,1.5,1.2v0.1l0,0l-0.4,0.2H21c-0.3-0.4-0.6-0.7-1.1-0.9
		c-1.3-0.5-2.6,0.5-2.8,1.8c-0.2,1.6,1.7,2.7,3.1,1.8C20.7,19.3,21,18.9,21.1,18.3C21.2,18.3,21.2,18.3,21.1,18.3L21.1,18.3z"/>
	<path class="st0" d="M37.2,17.8c0,1.5-1.2,2.6-2.6,2.6l0,0c-1.5,0-2.6-1.2-2.6-2.6l0,0c0-1.5,1.2-2.6,2.6-2.6l0,0
		C36,15.2,37.2,16.4,37.2,17.8L37.2,17.8z M36.6,17.8c0-1.1-0.9-2.1-2.1-2.1c-1.1,0-2.1,0.9-2.1,2.1l0,0c0,1.1,0.9,2.1,2.1,2.1l0,0
		C35.7,19.9,36.6,19,36.6,17.8z"/>
	<path class="st0" d="M40.6,19.2c0.3-1.4-2.8-1-2.5-2.9c0.2-1.3,2-1.5,2.8-0.5v0.1l-0.3,0.3h-0.1c-0.3-0.4-0.8-0.5-1.3-0.4
		c-0.4,0.1-0.6,0.5-0.5,0.9c0.1,0.3,0.4,0.5,0.6,0.6c0.8,0.3,1.7,0.6,1.8,1.5c0.2,1.2-1,1.8-2.1,1.6c-0.5-0.1-0.9-0.4-1.2-0.9v-0.1
		l0.4-0.3h0.1l0,0c0.3,0.6,0.7,0.8,1.4,0.7C40.2,19.9,40.5,19.6,40.6,19.2z"/>
	<path class="st0" d="M4.4,19.3C4.4,19.2,4.4,19.2,4.4,19.3H2.2c0,0,0,0-0.1,0l-0.4,1.1c0,0,0,0-0.1,0H1.1c0,0-0.1,0-0.1-0.1l0,0
		l1.8-5.1c0,0,0,0,0.1,0h0.5l0,0c0,0.1,0.1,0.1,0.1,0.3c0.7,1.6,1.3,3.2,1.9,4.9v0.1l0,0H4.8c0,0,0,0-0.1,0L4.4,19.3z M2.3,18.7
		L2.3,18.7L2.3,18.7h1.9l0,0l0,0L3.3,16l0,0l0,0L2.3,18.7z"/>
	<path class="st0" d="M23.1,19.2l-0.4,1.2l0,0h-0.6l0,0l0,0l1.8-5.1l0,0h0.6l0,0l1.8,5.1l0,0l0,0h-0.6l0,0l-0.4-1.2l0,0H23.1
		L23.1,19.2z M23.3,18.7L23.3,18.7L23.3,18.7h1.9l0,0l0,0L24.3,16l0,0l0,0L23.3,18.7z"/>
	<path class="st0" d="M8.7,17.8C8.6,17.8,8.6,17.8,8.7,17.8c0.2,0.2,0.4,0.3,0.5,0.4c0.6,0.7,0.3,1.9-0.6,2.2
		c-0.1,0-0.4,0.1-0.7,0.1c-0.6,0-1.2,0-1.8,0c0,0-0.1,0-0.1-0.1v-5.1c0,0,0-0.1,0.1-0.1c0.6,0,1.2,0,1.8,0c0.7,0,1.2,0.4,1.4,1.1
		c0.1,0.4,0,0.8-0.2,1.1C9,17.6,8.8,17.7,8.7,17.8z M7.8,17.6c1.3,0,1.3-1.8,0-1.8c-0.4,0-0.8,0-1.2,0c0,0-0.1,0-0.1,0.1v1.7
		c0,0,0,0.1,0.1,0.1C7.1,17.6,7.4,17.6,7.8,17.6z M8.6,18.3c-0.2-0.1-0.5-0.2-0.8-0.2c-0.4,0-0.8,0-1.2,0c0,0-0.1,0-0.1,0.1v1.6
		c0,0,0,0.1,0.1,0.1c0.5,0,0.9,0,1.4,0c0.4,0,0.6-0.2,0.8-0.4C9,19.1,8.9,18.6,8.6,18.3z"/>
	<path class="st0" d="M28.5,15.3c1.6,0,2.8,1.5,2.5,3.1c-0.2,1-0.9,1.8-1.9,2c-0.2,0-0.4,0.1-0.7,0.1c-0.4,0-0.8,0-1.2,0
		c0,0-0.1,0-0.1-0.1l0,0v-5.1c0,0,0-0.1,0.1-0.1C27.6,15.3,28,15.2,28.5,15.3z M28.8,19.8c2-0.3,2.3-3.2,0.4-3.9
		c-0.2-0.1-0.4-0.1-0.7-0.1c-0.3,0-0.5,0-0.8,0c0,0-0.1,0-0.1,0.1v3.9c0,0,0,0.1,0.1,0.1C28.1,19.9,28.5,19.9,28.8,19.8z"/>
</g>
<g>
	<path class="st0" d="M-50.9-5.7l2.1-5.2h0.7l2.1,5.2h-0.6l-0.6-1.6h-2.4l-0.6,1.6H-50.9z M-49.5-7.9h2l-1-2.5L-49.5-7.9z"/>
	<path class="st0" d="M-45.5-5.7V-11h2c0.3,0,0.6,0.1,0.8,0.2s0.4,0.3,0.5,0.5c0.1,0.2,0.2,0.4,0.2,0.7c0,0.3-0.1,0.5-0.2,0.7
		c-0.1,0.2-0.3,0.3-0.6,0.5c0.3,0.1,0.5,0.2,0.7,0.5c0.2,0.2,0.3,0.5,0.3,0.8c0,0.3-0.1,0.6-0.2,0.8s-0.3,0.4-0.6,0.5
		c-0.3,0.1-0.6,0.2-0.9,0.2H-45.5z M-45-8.7h1.5c0.3,0,0.6-0.1,0.8-0.2c0.2-0.2,0.3-0.4,0.3-0.6c0-0.3-0.1-0.5-0.3-0.6
		c-0.2-0.2-0.5-0.2-0.8-0.2H-45V-8.7z M-45-6.2h1.5c0.4,0,0.7-0.1,0.9-0.3s0.3-0.4,0.3-0.7c0-0.3-0.1-0.5-0.3-0.7
		c-0.2-0.2-0.5-0.3-0.9-0.3H-45V-6.2z"/>
	<path class="st0" d="M-38.6-5.7c-0.4,0-0.7-0.1-1-0.2c-0.3-0.1-0.6-0.3-0.8-0.6C-40.7-6.7-40.9-7-41-7.3c-0.1-0.3-0.2-0.7-0.2-1.1
		c0-0.4,0.1-0.7,0.2-1.1c0.1-0.3,0.3-0.6,0.6-0.9s0.5-0.4,0.8-0.6c0.3-0.1,0.7-0.2,1-0.2c0.4,0,0.7,0.1,1,0.2
		c0.3,0.1,0.6,0.3,0.8,0.6s0.4,0.5,0.6,0.9c0.1,0.3,0.2,0.7,0.2,1.1c0,0.4-0.1,0.7-0.2,1.1c-0.1,0.3-0.3,0.6-0.6,0.9
		C-37-6.2-37.3-6-37.6-5.9C-37.9-5.7-38.2-5.7-38.6-5.7z M-38.6-6.2c0.3,0,0.6-0.1,0.8-0.2c0.2-0.1,0.5-0.3,0.6-0.5
		c0.2-0.2,0.3-0.4,0.4-0.7c0.1-0.3,0.2-0.5,0.2-0.8c0-0.3-0.1-0.6-0.2-0.9c-0.1-0.3-0.2-0.5-0.4-0.7c-0.2-0.2-0.4-0.3-0.6-0.5
		c-0.2-0.1-0.5-0.2-0.8-0.2s-0.6,0.1-0.8,0.2c-0.2,0.1-0.5,0.3-0.6,0.5c-0.2,0.2-0.3,0.4-0.4,0.7c-0.1,0.3-0.2,0.5-0.2,0.9
		c0,0.3,0.1,0.6,0.2,0.8S-40.2-7-40-6.8c0.2,0.2,0.4,0.3,0.6,0.5C-39.1-6.2-38.9-6.2-38.6-6.2z"/>
	<path class="st0" d="M-32.8-5.7c-0.4,0-0.7-0.1-1-0.2s-0.6-0.3-0.8-0.6s-0.4-0.5-0.6-0.9c-0.1-0.3-0.2-0.7-0.2-1
		c0-0.4,0.1-0.7,0.2-1c0.1-0.3,0.3-0.6,0.6-0.9s0.5-0.4,0.8-0.6c0.3-0.1,0.7-0.2,1-0.2c0.4,0,0.8,0.1,1.1,0.2
		c0.3,0.1,0.6,0.4,0.9,0.6l-0.4,0.4c-0.2-0.2-0.4-0.4-0.7-0.5c-0.3-0.1-0.6-0.2-0.9-0.2c-0.3,0-0.6,0.1-0.8,0.2
		c-0.2,0.1-0.5,0.3-0.6,0.5c-0.2,0.2-0.3,0.4-0.4,0.7c-0.1,0.3-0.2,0.5-0.2,0.9c0,0.3,0.1,0.6,0.2,0.8s0.2,0.5,0.4,0.7
		c0.2,0.2,0.4,0.3,0.6,0.5c0.2,0.1,0.5,0.2,0.8,0.2c0.3,0,0.6-0.1,0.9-0.2c0.3-0.2,0.5-0.4,0.7-0.6S-31-7.6-31-8h-1.8v-0.5h2.4v0.2
		c0,0.4-0.1,0.7-0.2,1c-0.1,0.3-0.3,0.6-0.5,0.8c-0.2,0.2-0.5,0.4-0.8,0.5C-32.2-5.7-32.5-5.7-32.8-5.7z"/>
	<path class="st0" d="M-30.3-5.7l2.1-5.2h0.7l2.1,5.2h-0.6l-0.6-1.6h-2.4l-0.6,1.6H-30.3z M-28.9-7.9h2l-1-2.5L-28.9-7.9z"/>
	<path class="st0" d="M-25-5.7V-11h1.7c0.4,0,0.7,0.1,1.1,0.2c0.3,0.1,0.6,0.3,0.8,0.5c0.2,0.2,0.4,0.5,0.6,0.8
		c0.1,0.3,0.2,0.7,0.2,1c0,0.4-0.1,0.7-0.2,1C-21-7-21.2-6.7-21.4-6.5c-0.2,0.2-0.5,0.4-0.8,0.5s-0.7,0.2-1.1,0.2H-25z M-24.4-6.3
		h1.1c0.3,0,0.6-0.1,0.8-0.2c0.2-0.1,0.5-0.2,0.7-0.4c0.2-0.2,0.3-0.4,0.4-0.7c0.1-0.3,0.2-0.5,0.2-0.8c0-0.3-0.1-0.6-0.2-0.8
		c-0.1-0.3-0.2-0.5-0.4-0.7s-0.4-0.3-0.7-0.4c-0.2-0.1-0.5-0.2-0.8-0.2h-1.1V-6.3z"/>
	<path class="st0" d="M-17.5-5.7c-0.4,0-0.7-0.1-1-0.2c-0.3-0.1-0.6-0.3-0.8-0.6c-0.2-0.2-0.4-0.5-0.6-0.9c-0.1-0.3-0.2-0.7-0.2-1.1
		c0-0.4,0.1-0.7,0.2-1.1c0.1-0.3,0.3-0.6,0.6-0.9c0.2-0.2,0.5-0.4,0.8-0.6s0.7-0.2,1-0.2c0.4,0,0.7,0.1,1,0.2
		c0.3,0.1,0.6,0.3,0.8,0.6c0.2,0.2,0.4,0.5,0.6,0.9C-15-9.1-15-8.7-15-8.3c0,0.4-0.1,0.7-0.2,1.1c-0.1,0.3-0.3,0.6-0.6,0.9
		c-0.2,0.2-0.5,0.4-0.8,0.6C-16.8-5.7-17.2-5.7-17.5-5.7z M-17.5-6.2c0.3,0,0.6-0.1,0.8-0.2s0.5-0.3,0.6-0.5
		c0.2-0.2,0.3-0.4,0.4-0.7c0.1-0.3,0.2-0.5,0.2-0.8c0-0.3-0.1-0.6-0.2-0.9c-0.1-0.3-0.2-0.5-0.4-0.7c-0.2-0.2-0.4-0.3-0.6-0.5
		c-0.2-0.1-0.5-0.2-0.8-0.2s-0.6,0.1-0.8,0.2c-0.2,0.1-0.5,0.3-0.6,0.5c-0.2,0.2-0.3,0.4-0.4,0.7c-0.1,0.3-0.2,0.5-0.2,0.9
		c0,0.3,0.1,0.6,0.2,0.8c0.1,0.3,0.2,0.5,0.4,0.7c0.2,0.2,0.4,0.3,0.6,0.5C-18.1-6.2-17.8-6.2-17.5-6.2z"/>
	<path class="st0" d="M-12.5-5.7c-0.4,0-0.8-0.1-1.1-0.2c-0.4-0.2-0.7-0.4-1-0.7l0.4-0.4c0.3,0.3,0.5,0.5,0.8,0.6
		c0.3,0.1,0.6,0.2,0.9,0.2c0.3,0,0.5,0,0.7-0.1c0.2-0.1,0.4-0.2,0.5-0.4s0.2-0.3,0.2-0.5c0-0.3-0.1-0.5-0.3-0.6s-0.5-0.3-0.9-0.3
		L-13-8.3c-0.5-0.1-0.8-0.2-1.1-0.4s-0.3-0.5-0.3-0.9c0-0.3,0.1-0.5,0.2-0.8s0.4-0.4,0.6-0.5C-13.3-11-13-11-12.7-11
		c0.4,0,0.7,0.1,1,0.2c0.3,0.1,0.7,0.3,0.9,0.5L-11-9.9c-0.5-0.4-1.1-0.6-1.7-0.6c-0.2,0-0.4,0-0.6,0.1c-0.2,0.1-0.3,0.2-0.4,0.3
		c-0.1,0.1-0.2,0.3-0.2,0.5c0,0.2,0.1,0.4,0.2,0.6s0.4,0.2,0.8,0.3l0.7,0.1c0.5,0.1,0.9,0.3,1.2,0.5c0.2,0.2,0.4,0.5,0.4,0.9
		c0,0.3-0.1,0.6-0.2,0.8C-11-6.2-11.2-6-11.5-5.9C-11.8-5.7-12.1-5.7-12.5-5.7z"/>
</g>
<g>
	<polygon class="st0" points="-45.6,-17.9 -43.6,-17.9 -44.6,-20.5 	"/>
	<path class="st0" d="M-50.8-24.7v12.3h12.3v-12.3H-50.8z M-42.5-14.9l-0.7-1.8H-46l-0.7,1.8h-1.5l2.8-7h1.6l2.8,7H-42.5z"/>
</g>
<g>
	<path class="st0" d="M-36.8-24.7v12.3h12.3v-12.3H-36.8z M-27.4-18.6c-0.2,0.3-0.5,0.6-0.8,0.8c-0.3,0.2-0.7,0.3-1.2,0.3h-2v2.6
		h-1.4v-7h3.4c0.4,0,0.8,0.1,1.2,0.3c0.3,0.2,0.6,0.5,0.8,0.8s0.3,0.7,0.3,1.1C-27.2-19.3-27.3-19-27.4-18.6z"/>
	<path class="st0" d="M-29.6-20.7h-1.8v1.9h1.8c0.3,0,0.5-0.1,0.7-0.3c0.2-0.2,0.3-0.4,0.3-0.7c0-0.3-0.1-0.5-0.3-0.7
		C-29-20.6-29.3-20.7-29.6-20.7z"/>
</g>
<g>
	<path class="st0" d="M-16.1-20.7h-1.8v1.9h1.8c0.3,0,0.6-0.1,0.8-0.3c0.2-0.2,0.3-0.4,0.3-0.7c0-0.3-0.1-0.5-0.3-0.7
		C-15.5-20.6-15.8-20.7-16.1-20.7z"/>
	<path class="st0" d="M-22.8-24.7v12.3h12.3v-12.3H-22.8z M-15-14.9l-1.3-2.7h-1.5v2.7h-1.4v-7h3.3c0.5,0,0.9,0.1,1.2,0.3
		c0.4,0.2,0.6,0.4,0.8,0.8c0.2,0.3,0.3,0.7,0.3,1.1c0,0.4-0.1,0.8-0.4,1.2c-0.2,0.3-0.6,0.6-1,0.8l1.5,2.9H-15z"/>
</g>
<rect x="1.1" y="-22.9" class="st1" width="12.3" height="12.3"/>
<rect x="15.1" y="-22.9" class="st1" width="12.3" height="12.3"/>
<rect x="29.1" y="-22.9" class="st1" width="12.3" height="12.3"/>
<g>
	<g>
		<path d="M1-4l2.1-5.2h0.7L5.8-4H5.2L4.6-5.6H2.2L1.6-4H1z M2.4-6.1h2l-1-2.6L2.4-6.1z"/>
		<path d="M6.4-4v-5.2h2C8.7-9.2,9-9.2,9.2-9c0.2,0.1,0.4,0.3,0.5,0.5C9.9-8.4,10-8.1,10-7.9c0,0.3-0.1,0.5-0.2,0.7
			C9.6-7,9.5-6.8,9.2-6.7c0.3,0.1,0.5,0.2,0.7,0.5s0.3,0.5,0.3,0.8c0,0.3-0.1,0.6-0.2,0.8C9.8-4.5,9.6-4.3,9.4-4.2
			C9.1-4.1,8.8-4,8.5-4H6.4z M6.9-6.9h1.5C8.7-6.9,9-7,9.1-7.2s0.3-0.4,0.3-0.6c0-0.3-0.1-0.5-0.3-0.6S8.7-8.7,8.4-8.7H6.9V-6.9z
			 M6.9-4.5h1.5c0.4,0,0.7-0.1,0.9-0.3c0.2-0.2,0.3-0.4,0.3-0.7S9.5-6,9.3-6.2C9.1-6.4,8.8-6.5,8.4-6.5H6.9V-4.5z"/>
		<path d="M13.4-3.9c-0.4,0-0.7-0.1-1-0.2c-0.3-0.1-0.6-0.3-0.8-0.6c-0.2-0.2-0.4-0.5-0.6-0.9c-0.1-0.3-0.2-0.7-0.2-1.1
			c0-0.4,0.1-0.7,0.2-1.1c0.1-0.3,0.3-0.6,0.6-0.9c0.2-0.2,0.5-0.4,0.8-0.6c0.3-0.1,0.7-0.2,1-0.2c0.4,0,0.7,0.1,1,0.2
			c0.3,0.1,0.6,0.3,0.8,0.6c0.2,0.2,0.4,0.5,0.6,0.9c0.1,0.3,0.2,0.7,0.2,1.1c0,0.4-0.1,0.7-0.2,1.1c-0.1,0.3-0.3,0.6-0.6,0.9
			c-0.2,0.2-0.5,0.4-0.8,0.6C14.1-4,13.7-3.9,13.4-3.9z M13.4-4.4c0.3,0,0.6-0.1,0.8-0.2c0.2-0.1,0.5-0.3,0.6-0.5
			c0.2-0.2,0.3-0.4,0.4-0.7c0.1-0.3,0.2-0.5,0.2-0.8c0-0.3-0.1-0.6-0.2-0.9c-0.1-0.3-0.2-0.5-0.4-0.7c-0.2-0.2-0.4-0.3-0.6-0.5
			c-0.2-0.1-0.5-0.2-0.8-0.2s-0.6,0.1-0.8,0.2c-0.2,0.1-0.5,0.3-0.6,0.5c-0.2,0.2-0.3,0.4-0.4,0.7s-0.2,0.5-0.2,0.9
			c0,0.3,0.1,0.6,0.2,0.8s0.2,0.5,0.4,0.7c0.2,0.2,0.4,0.3,0.6,0.5C12.8-4.5,13.1-4.4,13.4-4.4z"/>
		<path d="M19.1-3.9c-0.4,0-0.7-0.1-1-0.2s-0.6-0.3-0.8-0.6c-0.2-0.2-0.4-0.5-0.6-0.9c-0.1-0.3-0.2-0.7-0.2-1s0.1-0.7,0.2-1
			C16.8-8,17-8.3,17.3-8.5c0.2-0.2,0.5-0.4,0.8-0.6c0.3-0.1,0.7-0.2,1-0.2c0.4,0,0.8,0.1,1.1,0.2c0.3,0.1,0.6,0.4,0.9,0.6L20.7-8
			c-0.2-0.2-0.4-0.4-0.7-0.5s-0.6-0.2-0.9-0.2c-0.3,0-0.6,0.1-0.8,0.2c-0.2,0.1-0.5,0.3-0.6,0.5c-0.2,0.2-0.3,0.4-0.4,0.7
			s-0.2,0.5-0.2,0.9c0,0.3,0.1,0.6,0.2,0.8s0.2,0.5,0.4,0.7c0.2,0.2,0.4,0.3,0.6,0.5c0.2,0.1,0.5,0.2,0.8,0.2c0.3,0,0.6-0.1,0.9-0.2
			c0.3-0.2,0.5-0.4,0.7-0.6S21-5.9,21-6.2h-1.8v-0.5h2.4v0.2c0,0.4-0.1,0.7-0.2,1c-0.1,0.3-0.3,0.6-0.5,0.8
			c-0.2,0.2-0.5,0.4-0.8,0.5C19.8-4,19.5-3.9,19.1-3.9z"/>
		<path d="M21.8-4l2.1-5.2h0.7L26.6-4H26l-0.6-1.6H23L22.4-4H21.8z M23.2-6.1h2l-1-2.6L23.2-6.1z"/>
		<path d="M27.1-4v-5.2h1.7c0.4,0,0.7,0.1,1.1,0.2c0.3,0.1,0.6,0.3,0.8,0.5c0.2,0.2,0.4,0.5,0.6,0.8c0.1,0.3,0.2,0.7,0.2,1
			c0,0.4-0.1,0.7-0.2,1c-0.1,0.3-0.3,0.6-0.5,0.8c-0.2,0.2-0.5,0.4-0.8,0.5S29.2-4,28.8-4H27.1z M27.7-4.5h1.1
			c0.3,0,0.6-0.1,0.8-0.2c0.2-0.1,0.5-0.2,0.7-0.4c0.2-0.2,0.3-0.4,0.4-0.7c0.1-0.3,0.2-0.5,0.2-0.8s-0.1-0.6-0.2-0.8
			c-0.1-0.3-0.2-0.5-0.4-0.7s-0.4-0.3-0.7-0.4s-0.5-0.2-0.8-0.2h-1.1V-4.5z"/>
		<path d="M34.6-3.9c-0.4,0-0.7-0.1-1-0.2S33-4.5,32.8-4.7c-0.2-0.2-0.4-0.5-0.6-0.9C32.1-5.9,32-6.2,32-6.6c0-0.4,0.1-0.7,0.2-1.1
			c0.1-0.3,0.3-0.6,0.6-0.9c0.2-0.2,0.5-0.4,0.8-0.6c0.3-0.1,0.7-0.2,1-0.2c0.4,0,0.7,0.1,1,0.2c0.3,0.1,0.6,0.3,0.8,0.6
			C36.7-8.3,36.9-8,37-7.7c0.1,0.3,0.2,0.7,0.2,1.1c0,0.4-0.1,0.7-0.2,1.1c-0.1,0.3-0.3,0.6-0.6,0.9c-0.2,0.2-0.5,0.4-0.8,0.6
			C35.3-4,35-3.9,34.6-3.9z M34.6-4.4c0.3,0,0.6-0.1,0.8-0.2c0.2-0.1,0.5-0.3,0.6-0.5c0.2-0.2,0.3-0.4,0.4-0.7
			c0.1-0.3,0.2-0.5,0.2-0.8c0-0.3-0.1-0.6-0.2-0.9c-0.1-0.3-0.2-0.5-0.4-0.7c-0.2-0.2-0.4-0.3-0.6-0.5s-0.5-0.2-0.8-0.2
			s-0.6,0.1-0.8,0.2c-0.2,0.1-0.5,0.3-0.6,0.5c-0.2,0.2-0.3,0.4-0.4,0.7c-0.1,0.3-0.2,0.5-0.2,0.9c0,0.3,0.1,0.6,0.2,0.8
			c0.1,0.3,0.2,0.5,0.4,0.7c0.2,0.2,0.4,0.3,0.6,0.5C34.1-4.5,34.3-4.4,34.6-4.4z"/>
		<path d="M39.6-3.9c-0.4,0-0.8-0.1-1.1-0.2c-0.4-0.2-0.7-0.4-1-0.7l0.4-0.4c0.3,0.3,0.5,0.5,0.8,0.6c0.3,0.1,0.6,0.2,0.9,0.2
			c0.3,0,0.5,0,0.7-0.1c0.2-0.1,0.4-0.2,0.5-0.4C40.9-5.1,41-5.3,41-5.5c0-0.3-0.1-0.5-0.3-0.6c-0.2-0.1-0.5-0.2-0.9-0.3l-0.7-0.1
			C38.6-6.6,38.3-6.7,38-7c-0.2-0.2-0.3-0.5-0.3-0.9c0-0.3,0.1-0.5,0.2-0.8c0.1-0.2,0.4-0.4,0.6-0.5c0.3-0.1,0.6-0.2,0.9-0.2
			c0.4,0,0.7,0.1,1,0.2c0.3,0.1,0.7,0.3,0.9,0.5l-0.3,0.4c-0.5-0.4-1.1-0.6-1.7-0.6c-0.2,0-0.4,0-0.6,0.1c-0.2,0.1-0.3,0.2-0.4,0.3
			s-0.2,0.3-0.2,0.5c0,0.2,0.1,0.4,0.2,0.6s0.4,0.2,0.8,0.3L40-6.9c0.5,0.1,0.9,0.3,1.2,0.5s0.4,0.5,0.4,0.9c0,0.3-0.1,0.6-0.2,0.8
			c-0.2,0.2-0.4,0.4-0.7,0.6C40.3-4,40-3.9,39.6-3.9z"/>
	</g>
</g>
<g>
	<g>
		<path d="M3.7-13.2l2.8-7h1.6l2.8,7H9.4L8.7-15H5.9l-0.7,1.8H3.7z M6.3-16.2h1.9l-1-2.6L6.3-16.2z"/>
	</g>
</g>
<g>
	<g>
		<path d="M19.1-13.2v-7h3.4c0.4,0,0.8,0.1,1.2,0.3c0.3,0.2,0.6,0.5,0.8,0.8s0.3,0.7,0.3,1.1c0,0.4-0.1,0.8-0.3,1.1
			c-0.2,0.3-0.5,0.6-0.8,0.8c-0.3,0.2-0.7,0.3-1.2,0.3h-2v2.6H19.1z M20.5-17h1.8c0.3,0,0.5-0.1,0.7-0.3c0.2-0.2,0.3-0.4,0.3-0.7
			c0-0.3-0.1-0.5-0.3-0.7c-0.2-0.2-0.4-0.3-0.7-0.3h-1.8V-17z"/>
	</g>
</g>
<g>
	<g>
		<path d="M32.6-13.2v-7h3.3c0.5,0,0.9,0.1,1.2,0.3c0.4,0.2,0.6,0.4,0.8,0.8c0.2,0.3,0.3,0.7,0.3,1.1c0,0.4-0.1,0.8-0.4,1.2
			c-0.2,0.3-0.6,0.6-1,0.8l1.5,2.9h-1.6l-1.3-2.7H34v2.7H32.6z M34-17.1h1.8c0.3,0,0.6-0.1,0.8-0.3c0.2-0.2,0.3-0.4,0.3-0.7
			c0-0.3-0.1-0.5-0.3-0.7c-0.2-0.2-0.4-0.3-0.8-0.3H34V-17.1z"/>
	</g>
</g>
</svg>
