<?xml version="1.0" encoding="utf-8"?>
<!-- Generator: Adobe Illustrator 27.1.0, SVG Export Plug-In . SVG Version: 6.00 Build 0)  -->
<svg version="1.1" id="Capa_1" xmlns="http://www.w3.org/2000/svg" xmlns:xlink="http://www.w3.org/1999/xlink" x="0px" y="0px"
	 viewBox="0 0 50 50" style="enable-background:new 0 0 50 50;" xml:space="preserve">
<style type="text/css">
	.st0{fill:none;stroke:#2EEDDA;stroke-width:3;stroke-miterlimit:10;}
</style>
<path class="st0" d="M34,7.4c-5.7,0-10.3,4.6-10.3,10.3c0,0.3,0.1,0.7,0.1,1c-7-0.7-13.3-4.1-17.5-9.2C6.1,9.3,5.8,9.1,5.5,9.2
	c-0.3,0-0.6,0.2-0.8,0.5c-0.9,1.5-1.4,3.3-1.4,5.2c0,2.3,0.8,4.4,2.1,6.1c-0.2-0.1-0.5-0.2-0.7-0.3c-0.3-0.2-0.6-0.1-0.9,0
	c-0.3,0.2-0.5,0.5-0.5,0.8v0.1c0,3.5,1.8,6.6,4.5,8.4H7.7c-0.3-0.1-0.7,0.1-0.9,0.3c-0.2,0.2-0.3,0.6-0.2,0.9
	c1.1,3.3,3.8,5.8,7.1,6.8c-2.7,1.6-5.8,2.5-9.1,2.5c-0.7,0-1.4,0-2.1-0.1c-0.4-0.1-0.9,0.2-1,0.6c-0.2,0.4,0,0.9,0.4,1.1
	c4.3,2.8,9.4,4.4,14.9,4.4c8.9,0,15.8-3.7,20.5-9s7.1-12.2,7.1-18.6c0-0.3,0-0.5,0-0.8c1.7-1.3,3.3-2.9,4.5-4.7
	c0.2-0.4,0.2-0.8-0.1-1.2c-0.3-0.3-0.7-0.4-1.1-0.2c-0.5,0.2-1.1,0.2-1.6,0.4c0.7-0.9,1.3-1.9,1.6-3c0.1-0.4,0-0.8-0.3-1
	s-0.7-0.3-1.1-0.1c-1.6,1-3.4,1.6-5.3,2.1C39.1,8.6,36.7,7.4,34,7.4z"/>
</svg>
