<svg width="253" height="65" viewBox="0 0 253 65" fill="none" xmlns="http://www.w3.org/2000/svg">
<rect y="10.75" width="161" height="43.5" rx="13" fill="white"/>
<path d="M51.6399 23.79L47.3279 38.75H45.4139L42.0479 26.826L38.7919 38.75H36.8779L32.4339 23.922L34.5239 23.614L37.8679 35.912L41.0359 23.79H43.1039L46.4039 35.912L49.5719 23.79H51.6399ZM55.5026 31.226L55.2386 29.488C55.6053 29.1507 56.0086 28.85 56.4486 28.586C56.8886 28.322 57.3506 28.1167 57.8346 27.97C58.3333 27.8087 58.8246 27.728 59.3086 27.728C60.1153 27.728 60.7679 27.904 61.2666 28.256C61.7799 28.5933 62.1539 29.0627 62.3886 29.664C62.6233 30.2653 62.7406 30.9473 62.7406 31.71V38.75H60.6286V31.908C60.6286 31.1893 60.5039 30.6173 60.2546 30.192C60.0199 29.752 59.5579 29.532 58.8686 29.532C58.5166 29.532 58.1426 29.6127 57.7466 29.774C57.3653 29.9207 56.9839 30.126 56.6026 30.39C56.2213 30.6393 55.8546 30.918 55.5026 31.226ZM55.5026 38.75H53.3906V23.46L55.5026 23.218V38.75ZM66.8938 35.67C66.8938 35.934 66.9598 36.198 67.0918 36.462C67.2238 36.7113 67.4218 36.924 67.6858 37.1C67.9498 37.2613 68.2798 37.342 68.6758 37.342C69.2184 37.342 69.7244 37.21 70.1938 36.946C70.6778 36.682 71.1031 36.3447 71.4698 35.934V33.778H68.8738C68.2284 33.778 67.7371 33.9687 67.3998 34.35C67.0624 34.7313 66.8938 35.1713 66.8938 35.67ZM66.2338 30.412L65.6398 28.74C65.9184 28.5493 66.2851 28.388 66.7398 28.256C67.1944 28.1093 67.6564 27.9993 68.1258 27.926C68.5951 27.838 68.9764 27.794 69.2698 27.794C70.0911 27.794 70.8244 27.9627 71.4698 28.3C72.1298 28.6227 72.6431 29.07 73.0098 29.642C73.3911 30.1993 73.5818 30.8227 73.5818 31.512V38.75H72.1078L71.8438 37.738C71.4771 38.0607 71.0078 38.354 70.4358 38.618C69.8638 38.882 69.2918 39.014 68.7198 39.014C67.4584 39.014 66.5198 38.6987 65.9038 38.068C65.3024 37.4373 65.0018 36.638 65.0018 35.67C65.0018 34.5993 65.3611 33.7853 66.0798 33.228C66.8131 32.656 67.7591 32.37 68.9178 32.37H71.4478V32.26C71.4478 31.5267 71.3011 30.918 71.0078 30.434C70.7144 29.9353 70.1498 29.686 69.3138 29.686C68.6831 29.686 68.1111 29.7667 67.5978 29.928C67.0844 30.0747 66.6298 30.236 66.2338 30.412ZM80.7134 28.212L81.3734 29.818H78.7774V35.45C78.7774 35.9927 78.8947 36.44 79.1294 36.792C79.3787 37.1293 79.7674 37.298 80.2954 37.298C80.4714 37.298 80.6474 37.276 80.8234 37.232C81.014 37.1733 81.1827 37.1147 81.3294 37.056L81.8794 38.662C81.762 38.7207 81.6007 38.7867 81.3954 38.86C81.1901 38.9333 80.9701 38.992 80.7354 39.036C80.5154 39.0947 80.2954 39.124 80.0754 39.124C79.386 39.124 78.7847 38.9993 78.2714 38.75C77.758 38.486 77.362 38.1047 77.0834 37.606C76.8047 37.1073 76.6654 36.4987 76.6654 35.78V29.818H75.1694L75.1474 28.212H76.6654V25.55L78.7774 25.066V28.212H80.7134ZM83.0634 38.068L83.7234 36.594C84.0314 36.7407 84.3394 36.8727 84.6474 36.99C84.9701 37.0927 85.2928 37.1733 85.6154 37.232C85.9381 37.2907 86.2608 37.32 86.5834 37.32C87.0528 37.32 87.4561 37.2613 87.7934 37.144C88.1454 37.0267 88.4168 36.8653 88.6074 36.66C88.7981 36.4547 88.8934 36.22 88.8934 35.956C88.8934 35.6773 88.7908 35.428 88.5854 35.208C88.3801 34.988 88.1014 34.79 87.7494 34.614C87.3974 34.4233 86.9868 34.2547 86.5174 34.108C85.9601 33.9173 85.4101 33.6827 84.8674 33.404C84.3394 33.1253 83.8994 32.7807 83.5474 32.37C83.1954 31.9593 83.0194 31.468 83.0194 30.896C83.0194 29.928 83.3788 29.1727 84.0974 28.63C84.8308 28.0727 85.8208 27.794 87.0674 27.794C87.3754 27.794 87.7348 27.838 88.1454 27.926C88.5708 27.9993 88.9961 28.1093 89.4214 28.256C89.8468 28.4027 90.2061 28.586 90.4994 28.806L89.8394 30.236C89.4288 30.0453 88.9961 29.8767 88.5414 29.73C88.1014 29.5833 87.5954 29.51 87.0234 29.51C86.4661 29.51 86.0041 29.642 85.6374 29.906C85.2854 30.1553 85.1094 30.4707 85.1094 30.852C85.1241 31.1747 85.3294 31.4607 85.7254 31.71C86.1361 31.9447 86.6641 32.172 87.3094 32.392C87.8961 32.5973 88.4608 32.8613 89.0034 33.184C89.5608 33.492 90.0154 33.866 90.3674 34.306C90.7341 34.746 90.9174 35.2593 90.9174 35.846C90.9174 36.8433 90.5434 37.628 89.7954 38.2C89.0621 38.7573 87.9914 39.036 86.5834 39.036C86.2901 39.036 85.9234 38.9993 85.4834 38.926C85.0434 38.8527 84.6034 38.7427 84.1634 38.596C83.7381 38.4493 83.3714 38.2733 83.0634 38.068ZM100.815 33.052L98.3512 26.628L95.9532 33.052H100.815ZM97.4272 23.79H99.3412L105.105 38.618L103.015 38.926L101.453 34.746H95.3592L93.8632 38.75H91.7952L97.4272 23.79ZM108.889 43.326L106.777 43.568V28.08H107.965L108.889 29.4V43.326ZM108.097 31.204L107.459 29.686C107.782 29.246 108.163 28.8867 108.603 28.608C109.058 28.3293 109.513 28.124 109.967 27.992C110.422 27.86 110.796 27.794 111.089 27.794C112.189 27.794 113.135 28.0287 113.927 28.498C114.719 28.9673 115.328 29.6347 115.753 30.5C116.179 31.3507 116.391 32.348 116.391 33.492C116.391 34.592 116.171 35.56 115.731 36.396C115.291 37.232 114.668 37.8847 113.861 38.354C113.069 38.8087 112.138 39.036 111.067 39.036C110.774 39.036 110.4 38.97 109.945 38.838C109.491 38.7207 109.036 38.5227 108.581 38.244C108.127 37.9653 107.738 37.5913 107.415 37.122L108.031 35.626C108.486 36.198 108.948 36.6087 109.417 36.858C109.901 37.1073 110.459 37.232 111.089 37.232C111.764 37.232 112.329 37.0707 112.783 36.748C113.253 36.4107 113.612 35.9633 113.861 35.406C114.111 34.8487 114.235 34.218 114.235 33.514C114.235 32.7513 114.111 32.0767 113.861 31.49C113.627 30.9033 113.275 30.4413 112.805 30.104C112.336 29.7667 111.764 29.598 111.089 29.598C110.444 29.598 109.894 29.73 109.439 29.994C108.999 30.2433 108.552 30.6467 108.097 31.204ZM120.62 43.326L118.508 43.568V28.08H119.696L120.62 29.4V43.326ZM119.828 31.204L119.19 29.686C119.512 29.246 119.894 28.8867 120.334 28.608C120.788 28.3293 121.243 28.124 121.698 27.992C122.152 27.86 122.526 27.794 122.82 27.794C123.92 27.794 124.866 28.0287 125.658 28.498C126.45 28.9673 127.058 29.6347 127.484 30.5C127.909 31.3507 128.122 32.348 128.122 33.492C128.122 34.592 127.902 35.56 127.462 36.396C127.022 37.232 126.398 37.8847 125.592 38.354C124.8 38.8087 123.868 39.036 122.798 39.036C122.504 39.036 122.13 38.97 121.676 38.838C121.221 38.7207 120.766 38.5227 120.312 38.244C119.857 37.9653 119.468 37.5913 119.146 37.122L119.762 35.626C120.216 36.198 120.678 36.6087 121.148 36.858C121.632 37.1073 122.189 37.232 122.82 37.232C123.494 37.232 124.059 37.0707 124.514 36.748C124.983 36.4107 125.342 35.9633 125.592 35.406C125.841 34.8487 125.966 34.218 125.966 33.514C125.966 32.7513 125.841 32.0767 125.592 31.49C125.357 30.9033 125.005 30.4413 124.536 30.104C124.066 29.7667 123.494 29.598 122.82 29.598C122.174 29.598 121.624 29.73 121.17 29.994C120.73 30.2433 120.282 30.6467 119.828 31.204Z" fill="#484848"/>
<rect x="156.747" y="18.5029" width="19.4411" height="19.4411" transform="rotate(45 156.747 18.5029)" fill="white"/>
<g clip-path="url(#clip0_1_231)">
<path d="M219.893 64.7983C237.787 64.7983 252.292 50.2927 252.292 32.3992C252.292 14.5056 237.787 0 219.893 0C202 0 187.494 14.5056 187.494 32.3992C187.494 50.2927 202 64.7983 219.893 64.7983Z" fill="#49E670"/>
<path d="M230.73 38.4521C230.265 39.5608 228.404 40.6696 227.008 40.8913C226.077 41.1131 224.681 41.3348 220.494 39.5608C214.91 37.3434 211.42 32.0216 211.187 31.7998C210.955 31.3563 209.094 28.9172 209.094 26.478C209.094 24.0388 210.489 22.7083 210.955 22.2648C211.42 21.8214 212.118 21.5996 212.816 21.5996C213.049 21.5996 213.281 21.5996 213.514 21.5996C213.979 21.5996 214.445 21.5996 214.677 22.4866C215.143 23.5953 216.306 26.0345 216.306 26.2562C216.538 26.478 216.538 26.9215 216.306 27.1432C216.073 27.5867 216.073 27.5867 215.608 28.0302C215.375 28.2519 215.143 28.4737 214.91 28.9171C214.677 29.1389 214.445 29.5824 214.677 30.0259C214.91 30.4694 216.073 32.2433 217.702 33.5738C219.796 35.3477 221.424 35.7912 222.122 36.2347C222.587 36.4564 223.053 36.4564 223.518 36.0129C223.983 35.5695 224.449 34.9042 224.914 34.239C225.379 33.7955 225.845 33.5738 226.31 33.7955C226.775 34.0173 229.567 35.126 230.032 35.5695C230.498 35.7912 230.963 36.0129 230.963 36.2347C230.963 36.2347 230.963 37.3434 230.73 38.4521Z" fill="#FAFAFA"/>
<path d="M200.782 51.7846L200.673 52.1033L200.992 51.9968L209.667 49.1055C212.833 51.0381 216.242 52.0053 219.893 52.0053C230.677 52.0053 239.499 43.183 239.499 32.3991C239.499 21.6154 230.677 12.793 219.893 12.793C209.109 12.793 200.287 21.6154 200.287 32.3991C200.287 36.2923 201.495 40.185 203.671 43.3593L200.782 51.7846ZM210.248 46.1008L210.187 46.0705L210.123 46.091L205.089 47.6926L206.687 42.9006L206.719 42.803L206.646 42.7301L206.172 42.2558C204.249 39.3658 203.05 36.0005 203.05 32.3991C203.05 23.0144 210.509 15.5562 219.893 15.5562C229.278 15.5562 236.736 23.0144 236.736 32.3991C236.736 41.7838 229.278 49.2421 219.893 49.2421C216.524 49.2421 213.4 48.2798 210.757 46.358L210.746 46.35L210.734 46.3438L210.248 46.1008Z" fill="white" stroke="white" stroke-width="0.2"/>
</g>
<defs>
<clipPath id="clip0_1_231">
<rect width="65" height="65" fill="white" transform="translate(187.494)"/>
</clipPath>
</defs>
</svg>
