<?xml version="1.0" encoding="utf-8"?>
<!-- Generator: Adobe Illustrator 27.1.0, SVG Export Plug-In . SVG Version: 6.00 Build 0)  -->
<svg version="1.1" id="Capa_1" xmlns="http://www.w3.org/2000/svg" xmlns:xlink="http://www.w3.org/1999/xlink" x="0px" y="0px"
	 viewBox="0 0 105.3 112" style="enable-background:new 0 0 105.3 112;" xml:space="preserve">
<style type="text/css">
	.st0{fill:#2EEDDA;}
</style>
<g>
	<path class="st0" d="M94.7,40.9c0.2,14.8-5.3,26-11.6,36.9c-6.2,10.9-13.9,20.8-22.3,30.1c-5.1,5.7-9.1,5.5-14.1-0.3
		c-9.2-10.8-18.9-21.2-26-33.6c-6-10.5-10.7-21.3-10.2-33.9C11.6,19.2,30.7,0.7,51.6,0C77.1-0.8,95,17.7,94.7,40.9z M52.4,7.5
		c-6.1,0.2-12.9,2.1-18.8,6.3c-15.1,10.7-19.3,29-11.1,46.7c7.2,15.7,18.4,28.4,29.5,41.3c1.7,2,2.8,1.5,4.2-0.3
		c8.6-10,16.5-20.4,22.7-32c5.3-10,9.2-20.3,7.8-32C84.6,19.5,71.6,7.5,52.4,7.5z"/>
	<path class="st0" d="M52.8,63.2c-12,0-21.1-9.1-21.2-20.9c0-11.9,9.5-21.4,21.3-21.3c11.5,0.1,21.3,9.9,21.1,21.3
		C74,53.9,64.5,63.2,52.8,63.2z M52.8,55.8c7.2,0.1,13.4-6.2,13.5-13.6c0.1-7.1-6.4-13.7-13.5-13.7c-7.1-0.1-13.6,6.3-13.7,13.5
		C38.9,49.2,45.4,55.7,52.8,55.8z"/>
</g>
</svg>
