<?xml version="1.0" encoding="utf-8"?>
<!-- Generator: Adobe Illustrator 27.1.0, SVG Export Plug-In . SVG Version: 6.00 Build 0)  -->
<svg version="1.1" id="Capa_1" xmlns="http://www.w3.org/2000/svg" xmlns:xlink="http://www.w3.org/1999/xlink" x="0px" y="0px"
	 viewBox="0 0 40 13" style="enable-background:new 0 0 40 13;" xml:space="preserve">
<style type="text/css">
	.st0{fill:#00666A;}
	.st1{fill:#FFFFFF;}
	.st2{fill:#02A89E;}
</style>
<g>
	<path class="st0" d="M26.1,12.6C26.1,12.6,26.1,12.6,26.1,12.6L26.1,12.6l-12.2,0c0,0,0,0,0,0l0,0V0.4c0,0,0,0,0,0l0,0h12.1
		c0,0,0,0,0,0v0V12.6z M22.9,5.6c0.3-1.2-0.2-2.5-1.5-2.8c-0.1,0-0.4,0-1-0.1c-1,0-1.9,0-2.9,0c0,0-0.1,0-0.1,0.1v7
		c0,0,0,0.1,0.1,0.1h1.3c0,0,0.1,0,0.1-0.1l0,0l0-2.6c0,0,0-0.1,0.1-0.1c0,0,0,0,0,0c0.6,0,1.3,0,2,0C21.9,7.1,22.7,6.5,22.9,5.6z"
		/>
	<path class="st0" d="M12.3,12.6C12.3,12.6,12.3,12.6,12.3,12.6C12.3,12.6,12.3,12.6,12.3,12.6l-12.2,0c0,0,0,0,0,0l0,0V0.4
		c0,0,0,0,0,0h12.1c0,0,0,0,0,0l0,0V12.6z M7.7,8.3C7.7,8.3,7.7,8.3,7.7,8.3l0.6,1.6c0,0,0,0,0,0h1.5c0,0,0,0,0,0c0,0,0,0,0,0L7,2.8
		c0,0,0,0,0,0H5.6c0,0,0,0,0,0L2.8,9.8c0,0,0,0,0,0c0,0,0,0,0,0l1.5,0c0,0,0,0,0,0l0.6-1.6c0,0,0,0,0,0H7.7z"/>
	<path class="st0" d="M39.9,12.6C39.9,12.6,39.9,12.6,39.9,12.6L39.9,12.6l-12.2,0c0,0,0,0,0,0l0,0V0.4c0,0,0,0,0,0h12.1
		c0,0,0,0,0,0V12.6z M32.5,6.9c0.3,0,0.6,0,0.8,0c0.3,0,0.5,0.2,0.7,0.5c0.6,0.8,1.1,1.6,1.7,2.4c0,0,0,0,0,0l1.6,0
		c0.1,0,0.1,0,0-0.1c-0.2-0.3-0.6-1-1.2-1.8c-0.3-0.5-0.7-0.8-1.1-1.1c-0.1,0,0-0.1,0-0.1c0.1,0,0.3-0.1,0.4-0.1
		c1-0.3,1.5-1.3,1.3-2.3c-0.3-1.3-1.4-1.5-2.6-1.5c-1.3,0-2.3,0-3.1,0c0,0-0.1,0-0.1,0.1v7c0,0,0,0.1,0.1,0.1l0,0l1.3,0
		c0,0,0.1,0,0.1-0.1L32.5,6.9C32.5,6.9,32.5,6.9,32.5,6.9z"/>
	<path class="st1" d="M7.7,8.3H4.9c0,0,0,0,0,0L4.3,9.8c0,0,0,0,0,0l-1.5,0c0,0,0,0,0,0c0,0,0,0,0,0l2.8-7.1c0,0,0,0,0,0H7
		c0,0,0,0,0,0l2.8,7.1c0,0,0,0,0,0c0,0,0,0,0,0H8.3c0,0,0,0,0,0L7.7,8.3C7.7,8.3,7.7,8.3,7.7,8.3z M5.3,7C5.3,7.1,5.3,7.1,5.3,7
		C5.3,7.1,5.3,7.1,5.3,7l1.9,0c0,0,0,0,0,0c0,0,0,0,0,0L6.3,4.5c0,0,0,0,0,0c0,0,0,0,0,0L5.3,7z"/>
	<path class="st1" d="M21.4,2.8c1.3,0.3,1.8,1.6,1.5,2.8c-0.2,0.9-1,1.5-1.9,1.6c-0.7,0-1.4,0.1-2,0c0,0-0.1,0-0.1,0.1c0,0,0,0,0,0
		l0,2.6c0,0,0,0.1-0.1,0.1l0,0h-1.3c0,0-0.1,0-0.1-0.1v-7c0,0,0-0.1,0.1-0.1c1,0,1.9,0,2.9,0C20.9,2.8,21.3,2.8,21.4,2.8z M20.5,5.9
		c1.3-0.1,1.3-1.9-0.2-2c-0.4,0-0.9,0-1.3,0c0,0-0.1,0-0.1,0.1c0,0,0,0,0,0v1.9C19,6,19,6,19,6C19.6,6,20.1,6,20.5,5.9z"/>
	<path class="st1" d="M32.5,7v2.8c0,0,0,0.1-0.1,0.1l-1.3,0c0,0-0.1,0-0.1-0.1c0,0,0,0,0,0v-7c0,0,0-0.1,0.1-0.1c0.8,0,1.8,0,3.1,0
		c1.2,0,2.3,0.2,2.6,1.5c0.2,1-0.2,2-1.3,2.3c-0.1,0-0.3,0.1-0.4,0.1c-0.1,0-0.1,0,0,0.1c0.4,0.3,0.8,0.7,1.1,1.1
		c0.6,0.9,0.9,1.5,1.2,1.8c0,0.1,0,0.1,0,0.1l-1.6,0c0,0,0,0,0,0C35.1,9,34.6,8.2,34,7.4c-0.2-0.3-0.4-0.4-0.7-0.5
		C33.1,6.9,32.9,6.9,32.5,7C32.5,6.9,32.5,6.9,32.5,7z M35.3,4.9C35.4,4.3,35,4,34.5,4c-0.7,0-1.3,0-2,0c0,0-0.1,0-0.1,0.1v1.7
		c0,0,0,0.1,0.1,0.1l0,0c0.6,0,1.2,0,1.8,0C34.9,5.6,35.3,5.5,35.3,4.9z"/>
	<path class="st0" d="M20.4,4c1.4,0,1.5,1.9,0.2,2C20.1,6,19.6,6,19,6C19,6,19,6,19,5.9V4c0,0,0-0.1,0.1-0.1c0,0,0,0,0,0
		C19.5,3.9,19.9,3.9,20.4,4z"/>
	<path class="st0" d="M34.5,4c0.5,0,0.9,0.4,0.8,0.9c-0.1,0.6-0.4,0.7-1,0.8c-0.6,0-1.2,0-1.8,0c0,0-0.1,0-0.1-0.1l0,0V4
		c0,0,0-0.1,0.1-0.1C33.2,3.9,33.8,3.9,34.5,4z"/>
	<path class="st0" d="M5.3,7l0.9-2.5c0,0,0,0,0,0c0,0,0,0,0,0L7.2,7c0,0,0,0,0,0c0,0,0,0,0,0L5.3,7C5.3,7.1,5.3,7.1,5.3,7
		C5.3,7,5.3,7,5.3,7z"/>
</g>
<g>
	<path class="st2" d="M25.6-13.7C25.6-13.7,25.6-13.7,25.6-13.7L25.6-13.7l-12.3,0c0,0,0,0,0,0l0,0V-26c0,0,0,0,0,0l0,0h12.3
		c0,0,0,0,0,0l0,0V-13.7z M22.4-20.8c0.3-1.2-0.2-2.5-1.5-2.8c-0.1,0-0.5,0-1-0.1c-1,0-1.9,0-2.9,0c0,0-0.1,0-0.1,0.1v7.1
		c0,0,0,0.1,0.1,0.1h1.4c0,0,0.1,0,0.1-0.1l0,0l0-2.6c0,0,0-0.1,0.1-0.1c0,0,0,0,0,0c0.6,0,1.3,0,2,0C21.4-19.3,22.2-19.9,22.4-20.8
		z"/>
	<path class="st2" d="M11.6-13.7C11.6-13.7,11.6-13.7,11.6-13.7C11.6-13.7,11.6-13.7,11.6-13.7l-12.3,0c0,0,0,0,0,0l0,0V-26
		c0,0,0,0,0,0h12.3c0,0,0,0,0,0l0,0V-13.7z M7-18.1C7-18.1,7-18.1,7-18.1l0.6,1.6c0,0,0,0,0,0h1.5c0,0,0,0,0,0c0,0,0,0,0,0l-2.9-7.1
		c0,0,0,0,0,0H4.8c0,0,0,0,0,0L2-16.5c0,0,0,0,0,0c0,0,0,0,0,0l1.5,0c0,0,0,0,0,0L4.1-18c0,0,0,0,0,0H7z"/>
	<path class="st2" d="M39.6-13.7C39.6-13.7,39.5-13.7,39.6-13.7L39.6-13.7l-12.3,0c0,0,0,0,0,0l0,0V-26c0,0,0,0,0,0h12.3
		c0,0,0,0,0,0V-13.7z M32.1-19.4c0.3,0,0.6,0,0.8,0c0.3,0,0.5,0.2,0.7,0.5c0.6,0.8,1.1,1.6,1.7,2.5c0,0,0,0,0,0l1.6,0
		c0.1,0,0.1,0,0-0.1c-0.2-0.3-0.6-1-1.2-1.9c-0.3-0.5-0.7-0.9-1.1-1.2c-0.1,0,0-0.1,0-0.1c0.1,0,0.3-0.1,0.4-0.1
		c1.1-0.3,1.5-1.3,1.3-2.4c-0.3-1.4-1.4-1.5-2.6-1.5c-1.3,0-2.3,0-3.2,0c0,0-0.1,0-0.1,0.1v7.1c0,0,0,0.1,0.1,0.1l0,0l1.3,0
		c0,0,0.1,0,0.1-0.1L32.1-19.4C32-19.4,32-19.4,32.1-19.4z"/>
	<path class="st2" d="M4.6-19.3C4.6-19.3,4.6-19.3,4.6-19.3C4.6-19.3,4.6-19.3,4.6-19.3l1.9,0c0,0,0,0,0,0c0,0,0,0,0,0l-1-2.5
		c0,0,0,0,0,0c0,0,0,0,0,0L4.6-19.3z"/>
	<path class="st2" d="M19.8-22.4c1.4,0,1.5,1.9,0.2,2c-0.4,0-0.9,0.1-1.5,0c0,0-0.1,0-0.1-0.1v-2c0,0,0-0.1,0.1-0.1c0,0,0,0,0,0
		C18.9-22.4,19.3-22.4,19.8-22.4z"/>
	<path class="st2" d="M34.1-22.4c0.5,0,0.9,0.4,0.9,0.9c-0.1,0.6-0.4,0.8-1,0.8c-0.6,0-1.2,0-1.9,0c0,0-0.1,0-0.1-0.1l0,0v-1.7
		c0,0,0-0.1,0.1-0.1C32.7-22.4,33.4-22.4,34.1-22.4z"/>
	<path class="st2" d="M4.6-19.3l0.9-2.5c0,0,0,0,0,0c0,0,0,0,0,0l1,2.5c0,0,0,0,0,0c0,0,0,0,0,0L4.6-19.3
		C4.6-19.3,4.6-19.3,4.6-19.3C4.6-19.3,4.6-19.3,4.6-19.3z"/>
	<path class="st2" d="M13.8-9.7c0,1.5-1.2,2.6-2.6,2.6h0C9.7-7,8.5-8.2,8.5-9.7s1.2-2.6,2.6-2.6l0,0C12.6-12.3,13.8-11.1,13.8-9.7
		L13.8-9.7z M13.2-9.7c0-1.1-0.9-2.1-2.1-2.1c0,0,0,0,0,0c-1.1,0-2.1,0.9-2.1,2.1l0,0c0,1.1,0.9,2.1,2.1,2.1S13.2-8.5,13.2-9.7z"/>
	<path class="st2" d="M19.3-9.2l-1.9,0c0,0-0.1,0-0.1-0.1v-0.4c0,0,0-0.1,0.1-0.1l2.6,0c0,0,0.1,0,0.1,0.1c0,0,0,0,0,0
		c0,0.7-0.2,1.4-0.7,1.9c-1.4,1.5-3.8,0.9-4.5-0.9c-0.7-2.1,1.2-4,3.3-3.4c0.6,0.2,1.1,0.6,1.5,1.2c0,0,0,0.1,0,0.1c0,0,0,0,0,0
		l-0.4,0.2c0,0-0.1,0-0.1,0c-0.3-0.4-0.6-0.7-1.1-0.9c-1.3-0.5-2.6,0.5-2.8,1.8C15.1-8.1,17-7,18.4-7.9C18.9-8.2,19.2-8.6,19.3-9.2
		C19.4-9.2,19.4-9.2,19.3-9.2C19.3-9.2,19.3-9.2,19.3-9.2z"/>
	<path class="st2" d="M35.4-9.7c0,1.5-1.2,2.6-2.6,2.6l0,0c-1.5,0-2.6-1.2-2.6-2.6l0,0c0-1.5,1.2-2.6,2.6-2.6l0,0
		C34.2-12.3,35.4-11.1,35.4-9.7L35.4-9.7z M34.8-9.7c0-1.1-0.9-2.1-2.1-2.1c-1.1,0-2.1,0.9-2.1,2.1c0,0,0,0,0,0
		c0,1.1,0.9,2.1,2.1,2.1l0,0C33.9-7.6,34.8-8.5,34.8-9.7z"/>
	<path class="st2" d="M38.8-8.3c0.3-1.4-2.8-1-2.5-2.9c0.2-1.3,2-1.5,2.8-0.5c0,0,0,0.1,0,0.1l-0.3,0.3c0,0-0.1,0-0.1,0
		c-0.3-0.4-0.8-0.5-1.3-0.4c-0.4,0.1-0.6,0.5-0.5,0.9c0.1,0.3,0.4,0.5,0.6,0.6c0.8,0.3,1.7,0.6,1.8,1.5c0.2,1.2-1,1.8-2.1,1.6
		c-0.5-0.1-0.9-0.4-1.2-0.9c0,0,0-0.1,0-0.1l0.4-0.3c0,0,0.1,0,0.1,0c0,0,0,0,0,0c0.3,0.6,0.7,0.8,1.4,0.7
		C38.4-7.6,38.7-7.9,38.8-8.3z"/>
	<path class="st2" d="M2.6-8.2C2.6-8.3,2.6-8.3,2.6-8.2l-2.2,0c0,0,0,0-0.1,0l-0.4,1.1c0,0,0,0-0.1,0l-0.5,0c0,0-0.1,0-0.1-0.1
		c0,0,0,0,0,0l1.8-5.1c0,0,0,0,0.1,0h0.5c0,0,0,0,0,0c0,0.1,0.1,0.1,0.1,0.3C2.4-10.4,3-8.8,3.6-7.1c0,0,0,0.1,0,0.1c0,0,0,0,0,0H3
		c0,0,0,0-0.1,0L2.6-8.2z M0.5-8.8C0.5-8.8,0.5-8.8,0.5-8.8C0.5-8.8,0.5-8.8,0.5-8.8l1.9,0c0,0,0,0,0,0c0,0,0,0,0,0l-0.9-2.7
		c0,0,0,0,0,0c0,0,0,0,0,0L0.5-8.8z"/>
	<path class="st2" d="M21.3-8.3l-0.4,1.2c0,0,0,0,0,0h-0.6c0,0,0,0,0,0c0,0,0,0,0,0l1.8-5.1c0,0,0,0,0,0h0.6c0,0,0,0,0,0l1.8,5.1
		c0,0,0,0,0,0c0,0,0,0,0,0l-0.6,0c0,0,0,0,0,0l-0.4-1.2c0,0,0,0,0,0L21.3-8.3C21.3-8.3,21.3-8.3,21.3-8.3z M21.5-8.8
		C21.5-8.8,21.5-8.8,21.5-8.8C21.5-8.8,21.5-8.8,21.5-8.8l1.9,0c0,0,0,0,0,0c0,0,0,0,0,0l-0.9-2.7c0,0,0,0,0,0c0,0,0,0,0,0L21.5-8.8
		z"/>
	<path class="st2" d="M6.9-9.7C6.8-9.7,6.8-9.7,6.9-9.7c0.2,0.2,0.4,0.3,0.5,0.4C8-8.6,7.7-7.4,6.8-7.1c-0.1,0-0.4,0.1-0.7,0.1
		c-0.6,0-1.2,0-1.8,0c0,0-0.1,0-0.1-0.1l0-5.1c0,0,0-0.1,0.1-0.1c0.6,0,1.2,0,1.8,0c0.7,0,1.2,0.4,1.4,1.1c0.1,0.4,0,0.8-0.2,1.1
		C7.2-9.9,7-9.8,6.9-9.7z M6-9.9c1.3,0,1.3-1.8,0-1.8c-0.4,0-0.8,0-1.2,0c0,0-0.1,0-0.1,0.1v1.7c0,0,0,0.1,0.1,0.1
		C5.3-9.9,5.6-9.9,6-9.9z M6.8-9.2C6.6-9.3,6.3-9.4,6-9.4c-0.4,0-0.8,0-1.2,0c0,0-0.1,0-0.1,0.1v1.6c0,0,0,0.1,0.1,0.1
		c0.5,0,0.9,0,1.4,0C6.6-7.6,6.8-7.8,7-8C7.2-8.4,7.1-8.9,6.8-9.2z"/>
	<path class="st2" d="M26.7-12.2c1.6,0,2.8,1.5,2.5,3.1c-0.2,1-0.9,1.8-1.9,2c-0.2,0-0.4,0.1-0.7,0.1c-0.4,0-0.8,0-1.2,0
		c0,0-0.1,0-0.1-0.1c0,0,0,0,0,0v-5.1c0,0,0-0.1,0.1-0.1C25.8-12.2,26.2-12.3,26.7-12.2z M27-7.7c2-0.3,2.3-3.2,0.4-3.9
		c-0.2-0.1-0.4-0.1-0.7-0.1c-0.3,0-0.5,0-0.8,0c0,0-0.1,0-0.1,0.1v3.9c0,0,0,0.1,0.1,0.1C26.3-7.6,26.7-7.6,27-7.7z"/>
</g>
</svg>
