<?xml version="1.0" encoding="utf-8"?>
<!-- Generator: Adobe Illustrator 27.1.0, SVG Export Plug-In . SVG Version: 6.00 Build 0)  -->
<svg version="1.1" id="Capa_1" xmlns="http://www.w3.org/2000/svg" xmlns:xlink="http://www.w3.org/1999/xlink" x="0px" y="0px"
	 viewBox="0 0 42.4 22.1" style="enable-background:new 0 0 42.4 22.1;" xml:space="preserve">
<style type="text/css">
	.st0{fill:#FFFFFF;}
</style>
<g>
	<path class="st0" d="M27.4,13.8L27.4,13.8L27.4,13.8H15.1l0,0l0,0V1.5l0,0l0,0h12.3l0,0l0,0V13.8z M24.2,6.7
		c0.3-1.2-0.2-2.5-1.5-2.8c-0.1,0-0.5,0-1-0.1c-1,0-1.9,0-2.9,0c0,0-0.1,0-0.1,0.1V11c0,0,0,0.1,0.1,0.1h1.4c0,0,0.1,0,0.1-0.1l0,0
		V8.4c0,0,0-0.1,0.1-0.1l0,0c0.6,0,1.3,0,2,0C23.2,8.2,24,7.6,24.2,6.7z"/>
	<path class="st0" d="M13.4,13.8L13.4,13.8L13.4,13.8H1.1l0,0l0,0V1.5l0,0h12.3l0,0l0,0V13.8z M8.8,9.4L8.8,9.4L9.4,11l0,0h1.5l0,0
		l0,0L8,3.9l0,0H6.6l0,0L3.8,11l0,0l0,0h1.5l0,0l0.6-1.5l0,0h2.9V9.4z"/>
	<path class="st0" d="M41.4,13.8C41.4,13.8,41.3,13.8,41.4,13.8L41.4,13.8H29.1l0,0l0,0V1.5l0,0h12.3l0,0V13.8z M33.9,8.1
		c0.3,0,0.6,0,0.8,0c0.3,0,0.5,0.2,0.7,0.5c0.6,0.8,1.1,1.6,1.7,2.5l0,0h1.6c0.1,0,0.1,0,0-0.1c-0.2-0.3-0.6-1-1.2-1.9
		c-0.3-0.5-0.7-0.9-1.1-1.2c-0.1,0,0-0.1,0-0.1c0.1,0,0.3-0.1,0.4-0.1c1.1-0.3,1.5-1.3,1.3-2.4c-0.3-1.4-1.4-1.5-2.6-1.5
		c-1.3,0-2.3,0-3.2,0c0,0-0.1,0-0.1,0.1V11c0,0,0,0.1,0.1,0.1l0,0h1.3c0,0,0.1,0,0.1-0.1L33.9,8.1C33.8,8.1,33.8,8.1,33.9,8.1z"/>
	<path class="st0" d="M6.4,8.2L6.4,8.2L6.4,8.2h1.9l0,0l0,0l-1-2.5l0,0l0,0L6.4,8.2z"/>
	<path class="st0" d="M21.6,5.1c1.4,0,1.5,1.9,0.2,2c-0.4,0-0.9,0.1-1.5,0c0,0-0.1,0-0.1-0.1V5c0,0,0-0.1,0.1-0.1l0,0
		C20.7,5.1,21.1,5.1,21.6,5.1z"/>
	<path class="st0" d="M35.9,5.1c0.5,0,0.9,0.4,0.9,0.9c-0.1,0.6-0.4,0.8-1,0.8s-1.2,0-1.9,0c0,0-0.1,0-0.1-0.1l0,0V5
		c0,0,0-0.1,0.1-0.1C34.5,5.1,35.2,5.1,35.9,5.1z"/>
	<path class="st0" d="M6.4,8.2l0.9-2.5l0,0l0,0l1,2.5l0,0l0,0H6.4L6.4,8.2L6.4,8.2z"/>
	<path class="st0" d="M15.6,17.8c0,1.5-1.2,2.6-2.6,2.6l0,0c-1.5,0.1-2.7-1.1-2.7-2.6s1.2-2.6,2.6-2.6l0,0
		C14.4,15.2,15.6,16.4,15.6,17.8L15.6,17.8z M15,17.8c0-1.1-0.9-2.1-2.1-2.1l0,0c-1.1,0-2.1,0.9-2.1,2.1l0,0c0,1.1,0.9,2.1,2.1,2.1
		S15,19,15,17.8z"/>
	<path class="st0" d="M21.1,18.3h-1.9c0,0-0.1,0-0.1-0.1v-0.4c0,0,0-0.1,0.1-0.1h2.6c0,0,0.1,0,0.1,0.1l0,0c0,0.7-0.2,1.4-0.7,1.9
		c-1.4,1.5-3.8,0.9-4.5-0.9c-0.7-2.1,1.2-4,3.3-3.4c0.6,0.2,1.1,0.6,1.5,1.2v0.1l0,0l-0.4,0.2H21c-0.3-0.4-0.6-0.7-1.1-0.9
		c-1.3-0.5-2.6,0.5-2.8,1.8c-0.2,1.6,1.7,2.7,3.1,1.8C20.7,19.3,21,18.9,21.1,18.3C21.2,18.3,21.2,18.3,21.1,18.3L21.1,18.3z"/>
	<path class="st0" d="M37.2,17.8c0,1.5-1.2,2.6-2.6,2.6l0,0c-1.5,0-2.6-1.2-2.6-2.6l0,0c0-1.5,1.2-2.6,2.6-2.6l0,0
		C36,15.2,37.2,16.4,37.2,17.8L37.2,17.8z M36.6,17.8c0-1.1-0.9-2.1-2.1-2.1c-1.1,0-2.1,0.9-2.1,2.1l0,0c0,1.1,0.9,2.1,2.1,2.1l0,0
		C35.7,19.9,36.6,19,36.6,17.8z"/>
	<path class="st0" d="M40.6,19.2c0.3-1.4-2.8-1-2.5-2.9c0.2-1.3,2-1.5,2.8-0.5v0.1l-0.3,0.3h-0.1c-0.3-0.4-0.8-0.5-1.3-0.4
		c-0.4,0.1-0.6,0.5-0.5,0.9c0.1,0.3,0.4,0.5,0.6,0.6c0.8,0.3,1.7,0.6,1.8,1.5c0.2,1.2-1,1.8-2.1,1.6c-0.5-0.1-0.9-0.4-1.2-0.9v-0.1
		l0.4-0.3h0.1l0,0c0.3,0.6,0.7,0.8,1.4,0.7C40.2,19.9,40.5,19.6,40.6,19.2z"/>
	<path class="st0" d="M4.4,19.3C4.4,19.2,4.4,19.2,4.4,19.3H2.2c0,0,0,0-0.1,0l-0.4,1.1c0,0,0,0-0.1,0H1.1c0,0-0.1,0-0.1-0.1l0,0
		l1.8-5.1c0,0,0,0,0.1,0h0.5l0,0c0,0.1,0.1,0.1,0.1,0.3c0.7,1.6,1.3,3.2,1.9,4.9v0.1l0,0H4.8c0,0,0,0-0.1,0L4.4,19.3z M2.3,18.7
		L2.3,18.7L2.3,18.7h1.9l0,0l0,0L3.3,16l0,0l0,0L2.3,18.7z"/>
	<path class="st0" d="M23.1,19.2l-0.4,1.2l0,0h-0.6l0,0l0,0l1.8-5.1l0,0h0.6l0,0l1.8,5.1l0,0l0,0h-0.6l0,0l-0.4-1.2l0,0L23.1,19.2
		L23.1,19.2z M23.3,18.7L23.3,18.7L23.3,18.7h1.9l0,0l0,0L24.3,16l0,0l0,0L23.3,18.7z"/>
	<path class="st0" d="M8.7,17.8C8.6,17.8,8.6,17.8,8.7,17.8c0.2,0.2,0.4,0.3,0.5,0.4c0.6,0.7,0.3,1.9-0.6,2.2
		c-0.1,0-0.4,0.1-0.7,0.1c-0.6,0-1.2,0-1.8,0c0,0-0.1,0-0.1-0.1v-5.1c0,0,0-0.1,0.1-0.1c0.6,0,1.2,0,1.8,0c0.7,0,1.2,0.4,1.4,1.1
		c0.1,0.4,0,0.8-0.2,1.1C9,17.6,8.8,17.7,8.7,17.8z M7.8,17.6c1.3,0,1.3-1.8,0-1.8c-0.4,0-0.8,0-1.2,0c0,0-0.1,0-0.1,0.1v1.7
		c0,0,0,0.1,0.1,0.1C7.1,17.6,7.4,17.6,7.8,17.6z M8.6,18.3c-0.2-0.1-0.5-0.2-0.8-0.2c-0.4,0-0.8,0-1.2,0c0,0-0.1,0-0.1,0.1v1.6
		c0,0,0,0.1,0.1,0.1c0.5,0,0.9,0,1.4,0c0.4,0,0.6-0.2,0.8-0.4C9,19.1,8.9,18.6,8.6,18.3z"/>
	<path class="st0" d="M28.5,15.3c1.6,0,2.8,1.5,2.5,3.1c-0.2,1-0.9,1.8-1.9,2c-0.2,0-0.4,0.1-0.7,0.1c-0.4,0-0.8,0-1.2,0
		c0,0-0.1,0-0.1-0.1l0,0v-5.1c0,0,0-0.1,0.1-0.1C27.6,15.3,28,15.2,28.5,15.3z M28.8,19.8c2-0.3,2.3-3.2,0.4-3.9
		c-0.2-0.1-0.4-0.1-0.7-0.1c-0.3,0-0.5,0-0.8,0c0,0-0.1,0-0.1,0.1v3.9c0,0,0,0.1,0.1,0.1C28.1,19.9,28.5,19.9,28.8,19.8z"/>
</g>
</svg>
